<svg width="267" height="80" viewBox="0 0 267 80" fill="none" xmlns="http://www.w3.org/2000/svg">
<g clip-path="url(#clip0_108_716)">
<path d="M16.306 35.1665L0 35.2229V68.1707L5.49817 68.1297L5.47269 55.2036H15.4805C18.5939 55.2036 21.1162 54.302 22.9659 52.5293C24.8258 50.7259 25.7634 48.2616 25.7634 45.1876C25.7634 42.1137 24.9227 39.6852 23.2666 37.8972C21.6003 36.0836 19.2563 35.1665 16.306 35.1665ZM20.25 45.2696C20.25 48.7483 18.5684 50.3007 14.8079 50.3007H5.49817V40.0592H15.3633C18.7417 40.0592 20.2398 41.6679 20.2398 45.2696H20.25ZM38.6197 45.0083C34.8438 45.0083 31.868 46.202 29.7737 48.5434C27.8832 50.6337 26.9201 53.4617 26.9201 56.9404C26.9201 60.4191 27.9138 63.2574 29.8705 65.4502C30.961 66.6286 32.24 67.4995 33.6871 68.0528C35.1088 68.5805 36.7598 68.8572 38.6197 68.8572C42.5739 68.8572 45.6465 67.6942 47.7714 65.3939C49.6721 63.3445 50.6402 60.5011 50.6402 56.9404C50.6402 53.3798 49.6619 50.4954 47.7459 48.4614C45.6669 46.1764 42.5891 45.0134 38.6248 45.0134L38.6197 45.0083ZM32.0056 56.9404C32.0056 55.7467 32.1584 54.6657 32.4744 53.7538C32.7648 52.8674 33.1928 52.1194 33.7432 51.5251C34.9152 50.2494 36.5152 49.6398 38.6197 49.6398C43.3484 49.6398 45.5497 51.9555 45.5497 56.9404C45.5497 58.1598 45.4121 59.2408 45.137 60.1425C44.8873 61.0032 44.5051 61.6948 43.9395 62.3045C42.8083 63.6212 41.0707 64.2719 38.6197 64.2719C36.4438 64.2719 34.8438 63.6468 33.7279 62.3609C32.5712 61.0442 32.0056 59.2715 32.0056 56.9456V56.9404ZM71.5883 55.8594C70.4724 55.2754 68.5564 54.8348 65.7589 54.5274C62.2175 54.0817 60.8824 53.7794 60.3983 53.6103C59.2569 53.1646 59.0887 52.6113 59.0887 52.1297C59.0887 51.2434 59.3945 50.6747 60.0518 50.2597C60.6327 49.9113 61.7996 49.4963 64.1334 49.4963C68.5717 49.4963 69.1373 51.3407 69.1373 52.9597V53.7486H74.2635V52.9597C74.2635 49.358 72.5259 45.0596 64.2149 45.0596C62.6863 45.0596 61.2952 45.1825 60.0926 45.4336C58.8544 45.6846 57.8047 46.0586 56.8671 46.5812C55.0072 47.8261 54.0696 49.7012 54.0696 52.1809C54.0696 54.6606 55.1855 56.6433 57.3104 57.6423C57.876 57.919 59.155 58.3493 63.5678 59C67.6341 59.5943 68.3628 59.7736 68.4902 59.8197C69.4532 60.1937 69.866 60.7778 69.866 61.7717C69.866 62.4787 69.866 64.4051 64.6583 64.4051C61.6518 64.4051 60.3321 63.8108 59.7104 63.2831C59.1448 62.8373 58.8442 62.1611 58.7473 61.2594H53.4836C53.6212 62.407 53.8708 63.4214 54.2275 64.2514C54.681 65.235 55.2874 66.0548 56.0467 66.6491C56.9843 67.438 58.2123 67.9914 59.6696 68.3244C61.0353 68.642 62.7168 68.7957 64.6583 68.7957C73.2597 68.7957 75.0635 64.7791 75.0635 61.4079C75.0635 58.8309 73.8507 56.9046 71.5883 55.8492V55.8594ZM189.073 55.8594C187.942 55.2754 186.026 54.8348 183.228 54.5274C179.702 54.0817 178.362 53.7794 177.883 53.6103C176.726 53.1646 176.573 52.6113 176.573 52.1297C176.573 51.2434 176.864 50.6747 177.536 50.2597C178.102 49.9113 179.284 49.4963 181.618 49.4963C186.041 49.4963 186.607 51.3407 186.607 52.9597V53.7486H191.748V52.9597C191.748 49.358 190 45.0596 181.699 45.0596C180.155 45.0596 178.764 45.1825 177.567 45.4336C176.339 45.6846 175.279 46.0586 174.357 46.5812C172.497 47.8261 171.544 49.7012 171.544 52.1809C171.544 54.6606 172.66 56.6433 174.785 57.6423C175.366 57.919 176.629 58.3493 181.057 59C185.108 59.5943 185.852 59.7736 185.964 59.8197C186.943 60.1937 187.34 60.7778 187.34 61.7717C187.34 62.4787 187.34 64.4051 182.143 64.4051C179.126 64.4051 177.801 63.8108 177.18 63.2831C176.614 62.8373 176.313 62.1611 176.217 61.2594H170.953C171.09 62.407 171.34 63.4214 171.712 64.2514C172.155 65.235 172.762 66.0548 173.516 66.6491C174.469 67.438 175.682 67.9914 177.139 68.3244C178.504 68.642 180.186 68.7957 182.143 68.7957C190.729 68.7957 192.533 64.7791 192.533 61.4079C192.533 58.8309 191.32 56.9046 189.073 55.8492V55.8594ZM120.099 47.2113C119.839 46.9757 119.645 46.822 119.492 46.699C117.795 45.577 115.619 45.0083 113.016 45.0083C109.225 45.0083 106.249 46.115 104.195 48.2514C102.238 50.2341 101.235 53.0724 101.235 56.6894C101.235 58.4774 101.484 60.0964 101.963 61.495C102.458 62.95 103.191 64.195 104.18 65.2504C106.233 67.3305 109.143 68.3705 112.807 68.3705C115.798 68.3705 118.239 67.6891 120.099 66.3212V66.8079C120.073 70.9526 119.614 71.6596 118.611 72.6945C117.648 73.7038 115.925 74.2315 113.5 74.2315C110.605 74.2315 109.27 73.6475 108.649 73.1659C108.068 72.7099 107.63 71.7518 107.38 70.4095L107.186 69.3849L102.142 69.4412L102.167 70.8399C102.238 71.3932 102.33 71.9055 102.473 72.4076C102.942 74.2622 103.823 75.6916 105.061 76.6753C106.84 78.0586 109.622 78.74 113.576 78.74C123.222 78.74 125.25 72.9763 125.25 68.1246V45.6641H120.109L120.093 47.2165L120.099 47.2113ZM116.338 63.2421C115.553 63.5597 114.631 63.7134 113.581 63.7134C108.674 63.7134 106.483 61.5514 106.483 56.6894C106.483 54.4608 107.064 52.7701 108.246 51.561C109.444 50.3417 111.125 49.7576 113.388 49.7576C115.65 49.7576 117.286 50.3417 118.402 51.5456C119.543 52.7906 120.099 54.4403 120.099 56.5767C120.099 58.9027 119.518 60.6907 118.402 61.869C117.795 62.4787 117.092 62.9347 116.333 63.2421H116.338ZM134.489 46.3096C134.407 46.3814 134.326 46.4326 134.239 46.5043V45.6744H129.194L129.22 68.1194H134.234V57.1198C134.234 50.6644 137.184 49.9164 139.401 49.9164C139.992 49.9164 142.789 49.9318 142.789 49.9318V45.0134H139.829C137.515 45.0134 135.793 45.4284 134.483 46.3148L134.489 46.3096ZM162.163 61.2594C161.184 63.3087 159.406 64.2923 156.624 64.2923C154.27 64.2923 152.532 63.6007 151.304 62.1867C150.479 61.2286 149.979 60.0656 149.801 58.6516H168.227V57.4169C168.227 53.7435 167.289 50.7925 165.455 48.6305C164.42 47.3958 163.111 46.4685 161.582 45.8742C160.109 45.3055 158.372 45.0032 156.425 45.0032C152.746 45.0032 149.826 46.0688 147.742 48.1745C145.673 50.2802 144.614 53.1492 144.614 56.6843C144.614 60.2193 145.617 63.0986 147.605 65.2197C149.755 67.5866 152.802 68.7957 156.644 68.7957C158.163 68.7957 159.595 68.5754 160.904 68.1451C162.229 67.7147 163.401 67.0897 164.446 66.2597C166.03 64.8866 167.106 63.2113 167.641 61.2594H162.158H162.163ZM151.564 51.2126C152.186 50.6029 152.899 50.1316 153.674 49.8396C154.474 49.5322 155.411 49.3836 156.43 49.3836C158.412 49.3836 159.972 50.0086 161.21 51.2946C162.132 52.2526 162.698 53.2773 162.932 54.3839H149.989C150.336 53.0416 150.871 51.9709 151.559 51.2126H151.564Z" fill="white"/>
<path d="M98.3603 67.3969V66.1775H93.387V67.4225C93.387 67.4225 93.4022 68.1039 93.387 68.3242C93.3717 68.6572 93.2086 69.9431 93.1271 70.2505C92.9895 70.7885 92.8111 71.4289 92.7143 71.7773C92.6328 71.9873 92.536 72.1922 92.4392 72.3869C91.5576 74.134 89.5856 74.9639 87.6697 74.6156C84.8722 74.1288 82.8186 71.4699 83.2059 68.5906C83.3995 67.1509 83.741 65.7215 84.4034 64.4356C85.6416 61.9969 87.1601 59.7119 88.7041 57.4526C88.9945 57.0222 90.0799 55.4135 91.3487 52.9236C92.6583 53.5179 93.815 53.8509 94.5742 54.0302C95.9806 54.3632 96.8367 54.4452 97.494 54.2915C97.5756 54.2659 98.1972 54.1685 98.3501 53.9175C98.4061 53.8355 98.2686 53.6562 98.0902 53.6101C96.0112 53.0568 93.9831 52.3652 92.3831 50.7718C93.7335 47.7952 95.1246 43.9681 95.9093 39.6184C96.5004 36.4164 97.1934 33.2297 97.3412 29.9354C97.494 27.1894 97.3972 24.141 97.0099 21.564C96.2252 16.1333 93.8659 12.2806 90.2175 8.33056C85.448 3.17654 78.7931 0.804464 71.914 0.143561C64.6375 -0.548082 60.4081 1.48586 57.1826 4.16021C53.3507 7.34689 52.5813 10.3286 52.3061 14.581C52.0972 17.9879 52.7341 19.945 54.4412 23.4494C55.6794 26.0008 60.8515 30.417 62.2986 32.8455C63.6897 35.1868 63.3177 35.4788 64.3114 38.0302C64.8057 39.3059 67.3433 41.4269 69.6567 41.1042C71.9599 40.7865 73.7892 39.1215 75.058 35.8784C75.5115 34.6847 75.5421 33.5525 75.6797 32.5381C76.0262 29.8381 75.9396 27.6043 76.2045 24.2537C76.2453 23.8797 76.2759 23.434 76.1077 23.2291C75.6542 22.6757 75.058 22.9114 74.7829 23.4391C74.6045 23.7721 74.5638 24.1717 74.4517 24.5457C73.402 28.1218 71.2414 33.2912 71.1446 33.5935C70.8287 34.4388 70.0287 36.1141 69.4783 36.0578C69.1879 36.0321 68.9688 36.0168 68.8006 35.4737C68.6376 34.8896 67.8885 32.1333 65.3967 29.0286C60.989 23.5262 58.5635 20.8826 57.7482 17.2502C56.8667 13.2592 58.6603 9.01708 62.0642 7.1061C63.8426 6.10706 67.5471 4.61106 71.5319 5.02605C76.4389 5.55374 81.8658 7.30078 85.2442 11.0408C89.2544 15.4878 91.843 18.0084 91.9857 26.1032C92.0672 30.8576 91.0226 36.3959 89.8761 40.9863C89.7232 41.4423 89.5703 41.9137 89.4226 42.385C88.9945 43.6607 88.6073 44.752 88.2353 45.751C88.1232 45.5871 87.9296 45.3053 87.8786 45.2233C87.2722 44.3626 86.7372 43.5582 86.1155 42.8256C85.3716 41.9393 84.6123 40.9812 83.69 40.3152C82.518 39.4699 81.2645 39.2598 80.2454 40.3972C79.7358 40.9659 79.3893 41.7805 79.7613 42.7129C80.8517 45.459 82.9715 47.4775 85.3155 49.3783C85.4276 49.4756 85.8505 49.7676 86.3499 50.0853C85.5244 51.7196 84.5868 53.2976 83.3588 55.393C81.5957 58.3696 79.5829 61.8483 78.9358 63.4724C77.7078 66.5618 77.5855 69.7638 78.3447 72.9915C78.6759 74.4055 79.3638 75.5941 80.3575 76.6495C83.4709 80.0052 88.8213 80.8045 92.857 79.2009C93.7946 78.8269 94.7169 78.1352 95.3539 77.3463C97.0201 75.2816 97.9883 72.9556 98.2889 70.4298C98.3144 70.1532 98.3297 69.4205 98.3603 68.7801C98.3603 68.6674 98.3756 68.5598 98.3756 68.4881C98.3909 68.2114 98.3756 67.4071 98.3756 67.3917L98.3603 67.3969ZM90.1716 32.3844C90.1716 33.8138 89.0302 34.9767 87.6085 34.9767C86.1869 34.9767 85.0301 33.8138 85.0301 32.3844C85.0301 30.955 86.1869 29.8074 87.6085 29.8074C89.0302 29.8074 90.1716 30.955 90.1716 32.3844Z" fill="white"/>
<path d="M214.754 35.1665L198.448 35.2229V68.1707L203.946 68.1297L203.921 55.2036H213.929C217.042 55.2036 219.564 54.302 221.414 52.5293C223.274 50.7259 224.212 48.2616 224.212 45.1876C224.212 42.1137 223.371 39.6852 221.715 37.8972C220.049 36.0836 217.705 35.1665 214.754 35.1665ZM218.698 45.2696C218.698 48.7483 217.017 50.3007 213.256 50.3007H203.951V40.0592H213.817C217.195 40.0592 218.693 41.6679 218.693 45.2696H218.698ZM254.984 45.0083C251.208 45.0083 248.232 46.202 246.138 48.5434C244.248 50.6337 243.285 53.4617 243.285 56.9404C243.285 60.4191 244.278 63.2574 246.235 65.4502C247.325 66.6286 248.604 67.4995 250.052 68.0528C251.473 68.5805 253.124 68.8572 254.984 68.8572C258.938 68.8572 262.011 67.6942 264.136 65.3939C266.036 63.3445 267.005 60.5011 267.005 56.9404C267.005 53.3798 266.026 50.4954 264.11 48.4614C262.031 46.1764 258.954 45.0134 254.989 45.0134L254.984 45.0083ZM248.37 56.9404C248.37 55.7467 248.523 54.6657 248.839 53.7538C249.129 52.8674 249.557 52.1194 250.108 51.5251C251.28 50.2494 252.88 49.6398 254.984 49.6398C259.713 49.6398 261.914 51.9555 261.914 56.9404C261.914 58.1598 261.777 59.2408 261.501 60.1425C261.252 61.0032 260.87 61.6948 260.304 62.3045C259.173 63.6212 257.435 64.2719 254.984 64.2719C252.808 64.2719 251.208 63.6468 250.092 62.3609C248.936 61.0442 248.37 59.2715 248.37 56.9456V56.9404ZM233.267 46.3148C233.185 46.3865 233.104 46.4377 233.017 46.5094V45.6795H227.972L227.998 68.1246H233.012V57.1249C233.012 50.6695 235.962 49.9215 238.179 49.9215C238.77 49.9215 241.567 49.9369 241.567 49.9369V45.0186H238.607C236.293 45.0186 234.571 45.4336 233.261 46.3199L233.267 46.3148Z" fill="white"/>
</g>
<defs>
<clipPath id="clip0_108_716">
<rect width="267" height="80" fill="white"/>
</clipPath>
</defs>
</svg>
